<svg width="61" height="72" viewBox="0 0 61 72" fill="none" xmlns="http://www.w3.org/2000/svg">
<g id="logos:android-icon" clip-path="url(#clip0_62_2777)">
<path id="Vector" d="M18.8724 0.821384C18.529 0.823596 18.1915 0.911314 17.8904 1.07662C16.9018 1.62459 16.5392 2.89467 17.087 3.88256L19.3189 7.91287C13.9414 11.2398 10.3782 16.9229 10.3782 23.4093V24.6144C9.34531 23.4262 7.82727 22.6759 6.13109 22.6759C3.02328 22.6759 0.5 25.1992 0.5 28.3068V45.6526C0.5 48.76 3.02352 51.2835 6.13109 51.2835C7.82727 51.2835 9.34531 50.533 10.378 49.3448V51.7745C10.378 55.0504 13.0585 57.7307 16.3344 57.7307H17.8456V65.447C17.8456 68.5548 20.3691 71.0781 23.4767 71.0781C26.5843 71.0781 29.1076 68.5546 29.1076 65.447V57.7307H31.7223V65.447C31.7223 68.5548 34.2458 71.0781 37.3534 71.0781C40.4609 71.0781 42.9842 68.5546 42.9842 65.447V57.7307H44.4957C47.7713 57.7307 50.4519 55.0504 50.4519 51.7745V49.3448C51.4845 50.533 53.0028 51.2835 54.699 51.2835C57.8066 51.2835 60.3298 48.76 60.3298 45.6526V28.3068C60.3298 25.1992 57.8066 22.6759 54.699 22.6759C53.0028 22.6759 51.4845 23.4262 50.4519 24.6144V23.6132V23.5558C50.4523 23.4948 50.4519 23.4461 50.4519 23.4093C50.4519 16.9241 46.8805 11.2466 41.5048 7.91943L43.7431 3.88256C44.2906 2.89467 43.9283 1.62459 42.9397 1.07662C42.6386 0.911314 42.3011 0.823596 41.9577 0.821384C41.2276 0.814353 40.5111 1.1992 40.1338 1.88006L37.7933 6.10818C35.5048 5.26373 33.0148 4.80084 30.4152 4.80084C27.8178 4.80084 25.3231 5.25881 23.0366 6.10162L20.6963 1.88006C20.3188 1.1992 19.6025 0.814821 18.8724 0.821384Z" fill="white"/>
<path id="Vector_2" d="M6.13121 24.1426C3.81231 24.1426 1.96707 25.9878 1.96707 28.3067V45.6526C1.96707 47.9715 3.81231 49.8167 6.13121 49.8167C8.45012 49.8167 10.2956 47.9715 10.2956 45.6526V28.3067C10.2956 25.9878 8.45012 24.1426 6.13121 24.1426ZM54.6993 24.1426C52.3802 24.1426 50.535 25.9878 50.535 28.3067V45.6526C50.535 47.9715 52.3802 49.8167 54.6993 49.8167C57.0182 49.8167 58.8635 47.9715 58.8635 45.6526V28.3067C58.8635 25.9878 57.0182 24.1426 54.6993 24.1426Z" fill="#A4C639"/>
<path id="Vector_3" d="M23.477 43.937C21.1581 43.937 19.3126 45.7822 19.3126 48.1014V65.447C19.3126 67.7659 21.1581 69.6112 23.477 69.6112C25.7959 69.6112 27.6411 67.7659 27.6411 65.447V48.1014C27.6411 45.7822 25.7959 43.937 23.477 43.937ZM37.3536 43.937C35.0345 43.937 33.1893 45.7822 33.1893 48.1014V65.447C33.1893 67.7659 35.0345 69.6112 37.3536 69.6112C39.6725 69.6112 41.5178 67.7659 41.5178 65.447V48.1014C41.5178 45.7822 39.6725 43.937 37.3536 43.937Z" fill="#A4C639"/>
<path id="Vector_4" d="M18.885 2.28817C18.7865 2.28935 18.6899 2.31565 18.6045 2.36457C18.3075 2.52911 18.21 2.87036 18.3748 3.16801L21.3084 8.46746C15.6647 11.4042 11.8523 16.9849 11.8448 23.3899H48.9851C48.9773 16.9849 45.1652 11.4039 39.5215 8.46746L42.4549 3.16825C42.6199 2.87059 42.5222 2.52911 42.2252 2.36457C42.1398 2.31562 42.0432 2.28932 41.9447 2.28817C41.7337 2.28582 41.5343 2.39129 41.4218 2.59426L38.4499 7.9509C36.019 6.87278 33.2923 6.26739 30.4148 6.26739C27.5374 6.26739 24.8109 6.87254 22.3798 7.9509L19.4079 2.59426C19.3572 2.50023 19.2816 2.42195 19.1895 2.36796C19.0973 2.31398 18.992 2.28638 18.8852 2.28817H18.885ZM11.8448 24.8566V51.7746C11.8436 52.3645 11.9588 52.9488 12.184 53.4941C12.4092 54.0393 12.7398 54.5347 13.157 54.9518C13.5741 55.3689 14.0695 55.6996 14.6148 55.9247C15.16 56.1498 15.7444 56.2651 16.3343 56.2638H44.4956C45.0856 56.2651 45.6699 56.1498 46.2152 55.9247C46.7605 55.6995 47.2559 55.3689 47.673 54.9517C48.0902 54.5346 48.4208 54.0392 48.646 53.4939C48.8711 52.9486 48.9864 52.3643 48.9851 51.7743V24.8568H11.8448V24.8566Z" fill="#A4C639"/>
<path id="Vector_5" d="M21.844 13.4927C20.9963 13.4927 20.2943 14.1944 20.2943 15.0421C20.2943 15.8901 20.9963 16.5918 21.844 16.5918C22.692 16.5918 23.3937 15.8901 23.3937 15.0421C23.3937 14.1944 22.692 13.4927 21.844 13.4927ZM38.9857 13.4927C38.1377 13.4927 37.436 14.1944 37.436 15.0421C37.436 15.8901 38.1377 16.5918 38.9857 16.5918C39.8334 16.5918 40.5354 15.8901 40.5354 15.0421C40.5354 14.1944 39.8334 13.4927 38.9857 13.4927Z" fill="white"/>
</g>
<defs>
<clipPath id="clip0_62_2777">
<rect width="60" height="70.5469" fill="white" transform="translate(0.5 0.620117)"/>
</clipPath>
</defs>
</svg>
