<svg width="61" height="62" viewBox="0 0 61 62" fill="none" xmlns="http://www.w3.org/2000/svg">
<g id="logos:apiary" clip-path="url(#clip0_62_2767)">
<path id="Vector" opacity="0.5" d="M30.428 9.1827V26.428L45.3921 17.7875V0.541992L30.428 9.1827Z" fill="#13A049"/>
<path id="Vector_2" opacity="0.5" d="M30.428 9.1827L15.4641 0.541992V17.8234L30.428 26.4641V9.1827Z" fill="#A2CC39"/>
<path id="Vector_3" opacity="0.9" d="M45.3922 0.541992L30.428 9.1827L15.4641 0.541992L0.5 9.1827L30.428 26.4641L60.3383 9.1827L45.3922 0.541992Z" fill="url(#paint0_linear_62_2767)"/>
<path id="Vector_4" d="M30.428 26.464L0.5 9.18262V26.464L15.4641 35.1047V52.3683L30.428 61.009L45.3922 52.3683V35.1047L60.3383 26.464V9.18262L30.428 26.464Z" fill="url(#paint1_linear_62_2767)"/>
<path id="Vector_5" d="M30.428 26.464V61.009L45.3921 52.3683V35.1047L60.3382 26.464V9.18262L30.428 26.464Z" fill="url(#paint2_linear_62_2767)"/>
<path id="Vector_6" opacity="0.05" d="M30.428 43.7275V61.0089L45.3921 52.3682L30.428 43.7275Z" fill="#231F20"/>
<path id="Vector_7" opacity="0.1" d="M30.428 61.0451V43.7637L15.4641 52.4044L30.428 61.0451Z" fill="#231F20"/>
<path id="Vector_8" opacity="0.05" d="M15.4641 17.8232L0.5 26.4639L15.4641 35.1046L30.428 26.4639L15.4641 17.8232Z" fill="#231F20"/>
<path id="Vector_9" opacity="0.05" d="M45.3921 17.8232L30.428 26.4639L45.3921 35.1046L60.3382 26.4639L45.3921 17.8232Z" fill="#231F20"/>
</g>
<defs>
<linearGradient id="paint0_linear_62_2767" x1="60.3455" y1="13.5007" x2="0.5" y2="13.5007" gradientUnits="userSpaceOnUse">
<stop stop-color="#37BDA6"/>
<stop offset="1" stop-color="#8AD3B8"/>
</linearGradient>
<linearGradient id="paint1_linear_62_2767" x1="60.3455" y1="35.0948" x2="0.5" y2="35.0948" gradientUnits="userSpaceOnUse">
<stop offset="0.5" stop-color="#4BB6AD"/>
<stop offset="1" stop-color="#78BBC1"/>
</linearGradient>
<linearGradient id="paint2_linear_62_2767" x1="30.4226" y1="35.0948" x2="60.3451" y2="35.0948" gradientUnits="userSpaceOnUse">
<stop stop-color="#4379A7"/>
<stop offset="1" stop-color="#7CC9B8"/>
</linearGradient>
<clipPath id="clip0_62_2767">
<rect width="60" height="60.7031" fill="white" transform="translate(0.5 0.541992)"/>
</clipPath>
</defs>
</svg>
