<svg width="61" height="61" viewBox="0 0 61 61" fill="none" xmlns="http://www.w3.org/2000/svg">
<g id="logos:apple-app-store" clip-path="url(#clip0_62_2764)">
<path id="Vector" d="M13.64 0.893555H47.36C54.6172 0.893555 60.5 6.77637 60.5 14.0336V47.7536C60.5 55.0107 54.6172 60.8936 47.36 60.8936H13.64C6.38281 60.8936 0.5 55.0107 0.5 47.7536V14.0336C0.5 6.77637 6.38281 0.893555 13.64 0.893555Z" fill="url(#paint0_linear_62_2764)"/>
<path id="Vector_2" d="M19.7286 44.4425L19.7342 44.4444L17.6827 47.9975C16.9339 49.2946 15.2755 49.7389 13.9784 48.9901C12.6816 48.2413 12.237 46.5828 12.9859 45.2858L14.4971 42.6683L14.6422 42.4171C14.9012 42.0449 15.5403 41.4022 16.8188 41.5232C16.8188 41.5232 19.8275 41.8496 20.0452 43.4134C20.0452 43.4134 20.0748 43.9278 19.7286 44.4425ZM48.8246 35.3675H42.4276C41.9919 35.3382 41.8018 35.1826 41.7268 35.0921L41.7221 35.0839L34.8744 23.2232L34.8655 23.229L34.4549 22.6403C33.7817 21.6109 32.713 24.2434 32.713 24.2434C31.4368 27.1768 32.8942 30.5118 33.402 31.5198L42.9135 47.994C43.662 49.2908 45.3205 49.7354 46.6177 48.9864C47.9145 48.2375 48.3592 46.5791 47.6101 45.2821L45.2319 41.1627C45.1857 41.0628 45.1056 40.7919 45.5933 40.7907H48.8246C50.3223 40.7907 51.5363 39.5767 51.5363 38.079C51.5363 36.5814 50.3223 35.3673 48.8246 35.3673V35.3675ZM36.3995 39.0538C36.3995 39.0538 36.7409 40.7907 35.4198 40.7907H11.7716C10.2739 40.7907 9.05984 39.5767 9.05984 38.079C9.05984 36.5814 10.2739 35.3673 11.7716 35.3673H17.8513C18.8328 35.3106 19.0653 34.7439 19.0653 34.7439L19.0709 34.7467L27.0069 21.001L27.0045 21.0006C27.1491 20.735 27.0287 20.484 27.0078 20.4444L24.3868 15.9048C23.638 14.608 24.0824 12.9493 25.3794 12.2007C26.6764 11.4519 28.3349 11.896 29.0837 13.1931L30.2992 15.2985L31.5125 13.1968C32.2613 11.9 33.9198 11.4554 35.2168 12.2045C36.5138 12.9533 36.9582 14.6115 36.2094 15.9085L25.1661 35.0359C25.1178 35.1524 25.1031 35.3352 25.4623 35.3673H32.0633L32.0647 35.4318C32.0647 35.4318 35.8799 35.491 36.3995 39.0538Z" fill="white"/>
</g>
<defs>
<linearGradient id="paint0_linear_62_2764" x1="30.5" y1="0.893555" x2="30.5" y2="60.8936" gradientUnits="userSpaceOnUse">
<stop stop-color="#17C9FB"/>
<stop offset="1" stop-color="#1A74E8"/>
</linearGradient>
<clipPath id="clip0_62_2764">
<rect width="60" height="60" fill="white" transform="translate(0.5 0.893555)"/>
</clipPath>
</defs>
</svg>
